<?xml version="1.0" standalone="no"?><svg xmlns="http://www.w3.org/2000/svg" viewBox="0 0 1440 320"><path fill="#0E0A6D" fill-opacity="1" d="M0,128L40,112C80,96,160,64,240,74.7C320,85,400,139,480,165.3C560,192,640,192,720,170.7C800,149,880,107,960,85.3C1040,64,1120,64,1200,74.7C1280,85,1360,107,1400,117.3L1440,128L1440,320L1400,320C1360,320,1280,320,1200,320C1120,320,1040,320,960,320C880,320,800,320,720,320C640,320,560,320,480,320C400,320,320,320,240,320C160,320,80,320,40,320L0,320Z"></path></svg>