<?xml version="1.0" standalone="no"?><svg xmlns="http://www.w3.org/2000/svg" viewBox="0 0 1440 320"><path fill="#f3f4f5" fill-opacity="1" d="M0,128L26.7,128C53.3,128,107,128,160,128C213.3,128,267,128,320,154.7C373.3,181,427,235,480,240C533.3,245,587,203,640,197.3C693.3,192,747,224,800,229.3C853.3,235,907,213,960,181.3C1013.3,149,1067,107,1120,101.3C1173.3,96,1227,128,1280,133.3C1333.3,139,1387,117,1413,106.7L1440,96L1440,320L1413.3,320C1386.7,320,1333,320,1280,320C1226.7,320,1173,320,1120,320C1066.7,320,1013,320,960,320C906.7,320,853,320,800,320C746.7,320,693,320,640,320C586.7,320,533,320,480,320C426.7,320,373,320,320,320C266.7,320,213,320,160,320C106.7,320,53,320,27,320L0,320Z"></path></svg>